<?xml version="1.0" encoding="UTF-8" standalone="no"?>


<svg
   version="1.1"
   id="svg1"
   width="521.57495"
   height="47.989441"
   viewBox="0 0 521.57494 47.989441"
   xmlns:inkscape="http://www.inkscape.org/namespaces/inkscape"
   xmlns:sodipodi="http://sodipodi.sourceforge.net/DTD/sodipodi-0.dtd"
   xmlns="http://www.w3.org/2000/svg"
   xmlns:svg="http://www.w3.org/2000/svg">
  <defs
     id="defs1">
    <clipPath
       clipPathUnits="userSpaceOnUse"
       id="clipPath680">
      <path
         d="M 0,595.276 H 841.89 V 0 H 0 Z"
         transform="translate(-379.87981,-71.269302)"
         id="path680" />
    </clipPath>
    <clipPath
       clipPathUnits="userSpaceOnUse"
       id="clipPath682">
      <path
         d="M 0,595.276 H 841.89 V 0 H 0 Z"
         id="path682" />
    </clipPath>
    <clipPath
       clipPathUnits="userSpaceOnUse"
       id="clipPath684">
      <path
         d="M 0,595.276 H 841.89 V 0 H 0 Z"
         id="path684" />
    </clipPath>
    <clipPath
       clipPathUnits="userSpaceOnUse"
       id="clipPath686">
      <path
         d="M 0,595.276 H 841.89 V 0 H 0 Z"
         transform="translate(-379.92181,-52.830604)"
         id="path686" />
    </clipPath>
    <clipPath
       clipPathUnits="userSpaceOnUse"
       id="clipPath688">
      <path
         d="M 0,595.276 H 841.89 V 0 H 0 Z"
         id="path688" />
    </clipPath>
    <clipPath
       clipPathUnits="userSpaceOnUse"
       id="clipPath690">
      <path
         d="M 0,595.276 H 841.89 V 0 H 0 Z"
         transform="translate(-390.38951,-85.5161)"
         id="path690" />
    </clipPath>
    <clipPath
       clipPathUnits="userSpaceOnUse"
       id="clipPath692">
      <path
         d="M 0,595.276 H 841.89 V 0 H 0 Z"
         id="path692" />
    </clipPath>
    <clipPath
       clipPathUnits="userSpaceOnUse"
       id="clipPath694">
      <path
         d="M 0,595.276 H 841.89 V 0 H 0 Z"
         transform="translate(-641.03992,-71.269302)"
         id="path694" />
    </clipPath>
    <clipPath
       clipPathUnits="userSpaceOnUse"
       id="clipPath696">
      <path
         d="M 0,595.276 H 841.89 V 0 H 0 Z"
         id="path696" />
    </clipPath>
    <clipPath
       clipPathUnits="userSpaceOnUse"
       id="clipPath698">
      <path
         d="M 0,595.276 H 841.89 V 0 H 0 Z"
         id="path698" />
    </clipPath>
    <clipPath
       clipPathUnits="userSpaceOnUse"
       id="clipPath700">
      <path
         d="M 0,595.276 H 841.89 V 0 H 0 Z"
         transform="translate(-641.08192,-52.830604)"
         id="path700" />
    </clipPath>
    <clipPath
       clipPathUnits="userSpaceOnUse"
       id="clipPath702">
      <path
         d="M 0,595.276 H 841.89 V 0 H 0 Z"
         id="path702" />
    </clipPath>
    <clipPath
       clipPathUnits="userSpaceOnUse"
       id="clipPath704">
      <path
         d="M 0,595.276 H 841.89 V 0 H 0 Z"
         transform="translate(-651.54971,-85.5161)"
         id="path704" />
    </clipPath>
    <clipPath
       clipPathUnits="userSpaceOnUse"
       id="clipPath706">
      <path
         d="M 0,595.276 H 841.89 V 0 H 0 Z"
         id="path706" />
    </clipPath>
    <clipPath
       clipPathUnits="userSpaceOnUse"
       id="clipPath708">
      <path
         d="M 0,595.276 H 841.89 V 0 H 0 Z"
         transform="translate(-511.19911,-71.269302)"
         id="path708" />
    </clipPath>
    <clipPath
       clipPathUnits="userSpaceOnUse"
       id="clipPath710">
      <path
         d="M 0,595.276 H 841.89 V 0 H 0 Z"
         id="path710" />
    </clipPath>
    <clipPath
       clipPathUnits="userSpaceOnUse"
       id="clipPath712">
      <path
         d="M 0,595.276 H 841.89 V 0 H 0 Z"
         id="path712" />
    </clipPath>
    <clipPath
       clipPathUnits="userSpaceOnUse"
       id="clipPath714">
      <path
         d="M 0,595.276 H 841.89 V 0 H 0 Z"
         transform="translate(-511.24111,-52.830604)"
         id="path714" />
    </clipPath>
    <clipPath
       clipPathUnits="userSpaceOnUse"
       id="clipPath716">
      <path
         d="M 0,595.276 H 841.89 V 0 H 0 Z"
         id="path716" />
    </clipPath>
    <clipPath
       clipPathUnits="userSpaceOnUse"
       id="clipPath718">
      <path
         d="M 0,595.276 H 841.89 V 0 H 0 Z"
         transform="translate(-521.70892,-85.5161)"
         id="path718" />
    </clipPath>
    <clipPath
       clipPathUnits="userSpaceOnUse"
       id="clipPath720">
      <path
         d="M 0,595.276 H 841.89 V 0 H 0 Z"
         id="path720" />
    </clipPath>
  </defs>
  
  <g
     id="layer-MC0"
     transform="translate(-433.12733,-679.67986)">
    <path
       id="path679"
       d="M 0,0 H 19.194 L 9.666,3.314 Z"
       style="fill:#527158;fill-opacity:1;fill-rule:nonzero;stroke:none"
       transform="matrix(1.3333333,0,0,-1.3333333,506.5064,698.6756)"
       clip-path="url(#clipPath680)" />
    <path
       id="path681"
       d="m 399.033,70.461 h -19.111 v -1.607 h 19.111 z"
       style="fill:#527158;fill-opacity:1;fill-rule:nonzero;stroke:none"
       transform="matrix(1.3333333,0,0,-1.3333333,0,793.70133)"
       clip-path="url(#clipPath682)" />
    <path
       id="path683"
       d="m 379.055,58.185 h 20.843 v 1.629 h -20.843 z"
       style="fill:#527158;fill-opacity:1;fill-rule:nonzero;stroke:none"
       transform="matrix(1.3333333,0,0,-1.3333333,0,793.70133)"
       clip-path="url(#clipPath684)" />
    <path
       id="path685"
       d="M 0,0 H 2.099 V 3.172 H 4.653 V 0 h 3.623 v 3.172 h 2.557 V 0 h 3.623 v 3.172 h 2.555 V 0 h 2.1 V 4.573 H 0 Z"
       style="fill:#527158;fill-opacity:1;fill-rule:nonzero;stroke:none"
       transform="matrix(1.3333333,0,0,-1.3333333,506.5624,723.26053)"
       clip-path="url(#clipPath686)" />
    <path
       id="path687"
       d="m 397.016,61.514 h -3.791 v 5.217 h 3.791 z m -5.644,0 h -3.791 v 5.217 h 3.791 z m -5.644,0 h -3.789 v 5.217 h 3.789 z m 13.305,6.558 h -19.111 v -6.57 h -0.867 v -0.804 h 20.842 v 0.804 h -0.864 z"
       style="fill:#527158;fill-opacity:1;fill-rule:nonzero;stroke:none"
       transform="matrix(1.3333333,0,0,-1.3333333,0,793.70133)"
       clip-path="url(#clipPath688)" />
    <path
       id="path689"
       d="M 0,0 V -2.232 C 0.353,-2.31 0.824,-2.431 1.291,-2.604 2.202,-2.947 2.713,-3.326 2.768,-3.368 L 3.032,-3.569 V -4.837 H 2.385 v -0.306 c 1.276,-0.184 4.212,-0.852 6.633,-3.219 2.332,-2.282 3.154,-4.514 3.427,-5.541 h 3.541 v -3.411 h 75.908 v -0.671 h -76.58 v 3.41 h -3.41 c 0,0 -0.376,2.815 -3.356,5.734 -2.976,2.911 -6.834,3.096 -6.834,3.096 v 1.578 h 0.647 v 0.265 c 0,0 -0.462,0.352 -1.303,0.669 -0.847,0.313 -1.728,0.448 -1.728,0.448 v 2.243 h -0.545 v -2.243 c 0,0 -0.896,-0.135 -1.729,-0.448 C -3.788,-3.55 -4.24,-3.902 -4.24,-3.902 v -0.265 h 0.634 v -1.578 c 0,0 -4.087,-0.551 -6.835,-3.096 -2.757,-2.554 -3.353,-5.734 -3.353,-5.734 h -3.418 v -3.41 h -48.332 v 0.671 h 47.661 v 3.411 h 3.565 c 0.303,1.068 1.196,3.494 3.42,5.554 2.273,2.104 5.349,2.911 6.621,3.167 v 0.345 h -0.634 v 1.263 l 0.259,0.202 c 0.054,0.042 0.558,0.425 1.472,0.766 0.462,0.175 0.939,0.298 1.293,0.375 V 0 Z"
       style="fill:#527158;fill-opacity:1;fill-rule:nonzero;stroke:none"
       transform="matrix(1.3333333,0,0,-1.3333333,520.51933,679.67987)"
       clip-path="url(#clipPath690)" />
    <path
       id="path691"
       d="m 324.846,49.524 h 157.437 v 1.573 H 324.846 Z"
       style="fill:#527158;fill-opacity:1;fill-rule:nonzero;stroke:none"
       transform="matrix(1.3333333,0,0,-1.3333333,0,793.70133)"
       clip-path="url(#clipPath692)" />
    <path
       id="path693"
       d="M 0,0 H 19.194 L 9.666,3.314 Z"
       style="fill:#527158;fill-opacity:1;fill-rule:nonzero;stroke:none"
       transform="matrix(1.3333333,0,0,-1.3333333,854.71987,698.6756)"
       clip-path="url(#clipPath694)" />
    <path
       id="path695"
       d="m 660.193,70.461 h -19.111 v -1.607 h 19.111 z"
       style="fill:#527158;fill-opacity:1;fill-rule:nonzero;stroke:none"
       transform="matrix(1.3333333,0,0,-1.3333333,0,793.70133)"
       clip-path="url(#clipPath696)" />
    <path
       id="path697"
       d="m 640.215,58.185 h 20.843 v 1.629 h -20.843 z"
       style="fill:#527158;fill-opacity:1;fill-rule:nonzero;stroke:none"
       transform="matrix(1.3333333,0,0,-1.3333333,0,793.70133)"
       clip-path="url(#clipPath698)" />
    <path
       id="path699"
       d="M 0,0 H 2.099 V 3.172 H 4.653 V 0 h 3.623 v 3.172 h 2.557 V 0 h 3.623 v 3.172 h 2.555 V 0 h 2.1 V 4.573 H 0 Z"
       style="fill:#527158;fill-opacity:1;fill-rule:nonzero;stroke:none"
       transform="matrix(1.3333333,0,0,-1.3333333,854.77587,723.26053)"
       clip-path="url(#clipPath700)" />
    <path
       id="path701"
       d="m 658.176,61.514 h -3.791 v 5.217 h 3.791 z m -5.644,0 h -3.791 v 5.217 h 3.791 z m -5.643,0 H 643.1 v 5.217 h 3.789 z m 13.304,6.558 h -19.111 v -6.57 h -0.867 v -0.804 h 20.842 v 0.804 h -0.864 z"
       style="fill:#527158;fill-opacity:1;fill-rule:nonzero;stroke:none"
       transform="matrix(1.3333333,0,0,-1.3333333,0,793.70133)"
       clip-path="url(#clipPath702)" />
    <path
       id="path703"
       d="M 0,0 V -2.232 C 0.353,-2.31 0.824,-2.431 1.291,-2.604 2.202,-2.947 2.713,-3.326 2.768,-3.368 L 3.032,-3.569 V -4.837 H 2.385 v -0.306 c 1.276,-0.184 4.212,-0.852 6.633,-3.219 2.332,-2.282 3.154,-4.514 3.427,-5.541 h 3.541 v -3.411 h 48.491 v -0.671 H 15.314 v 3.41 h -3.41 c 0,0 -0.375,2.815 -3.356,5.734 -2.976,2.911 -6.834,3.096 -6.834,3.096 v 1.578 h 0.647 v 0.265 c 0,0 -0.462,0.352 -1.303,0.669 -0.847,0.313 -1.728,0.448 -1.728,0.448 v 2.243 h -0.545 v -2.243 c 0,0 -0.896,-0.135 -1.729,-0.448 C -3.788,-3.55 -4.24,-3.902 -4.24,-3.902 v -0.265 h 0.634 v -1.578 c 0,0 -4.087,-0.551 -6.835,-3.096 -2.757,-2.554 -3.353,-5.734 -3.353,-5.734 h -3.418 v -3.41 h -65.302 v 0.671 h 64.631 v 3.411 h 3.565 c 0.303,1.068 1.197,3.494 3.42,5.554 2.273,2.104 5.349,2.911 6.621,3.167 v 0.345 h -0.634 v 1.263 l 0.259,0.202 c 0.054,0.042 0.558,0.425 1.472,0.766 0.462,0.175 0.939,0.298 1.293,0.375 V 0 Z"
       style="fill:#527158;fill-opacity:1;fill-rule:nonzero;stroke:none"
       transform="matrix(1.3333333,0,0,-1.3333333,868.73293,679.67987)"
       clip-path="url(#clipPath704)" />
    <path
       id="path705"
       d="m 569.036,49.524 h 146.99 v 1.573 h -146.99 z"
       style="fill:#527158;fill-opacity:1;fill-rule:nonzero;stroke:none"
       transform="matrix(1.3333333,0,0,-1.3333333,0,793.70133)"
       clip-path="url(#clipPath706)" />
    <path
       id="path707"
       d="M 0,0 H 19.194 L 9.666,3.314 Z"
       style="fill:#527158;fill-opacity:1;fill-rule:nonzero;stroke:none"
       transform="matrix(1.3333333,0,0,-1.3333333,681.5988,698.6756)"
       clip-path="url(#clipPath708)" />
    <path
       id="path709"
       d="m 530.351,70.461 h -19.11 v -1.607 h 19.11 z"
       style="fill:#527158;fill-opacity:1;fill-rule:nonzero;stroke:none"
       transform="matrix(1.3333333,0,0,-1.3333333,0,793.70133)"
       clip-path="url(#clipPath710)" />
    <path
       id="path711"
       d="m 510.374,58.185 h 20.843 v 1.629 h -20.843 z"
       style="fill:#527158;fill-opacity:1;fill-rule:nonzero;stroke:none"
       transform="matrix(1.3333333,0,0,-1.3333333,0,793.70133)"
       clip-path="url(#clipPath712)" />
    <path
       id="path713"
       d="M 0,0 H 2.099 V 3.172 H 4.653 V 0 h 3.623 v 3.172 h 2.556 V 0 h 3.624 v 3.172 h 2.555 V 0 H 19.11 V 4.573 H 0 Z"
       style="fill:#527158;fill-opacity:1;fill-rule:nonzero;stroke:none"
       transform="matrix(1.3333333,0,0,-1.3333333,681.6548,723.26053)"
       clip-path="url(#clipPath714)" />
    <path
       id="path715"
       d="m 528.335,61.514 h -3.791 v 5.217 h 3.791 z m -5.644,0 H 518.9 v 5.217 h 3.791 z m -5.643,0 h -3.789 v 5.217 h 3.789 z m 13.303,6.558 h -19.11 v -6.57 h -0.867 v -0.804 h 20.843 v 0.804 h -0.866 z"
       style="fill:#527158;fill-opacity:1;fill-rule:nonzero;stroke:none"
       transform="matrix(1.3333333,0,0,-1.3333333,0,793.70133)"
       clip-path="url(#clipPath716)" />
    <path
       id="path717"
       d="M 0,0 V -2.232 C 0.353,-2.31 0.824,-2.431 1.291,-2.604 2.201,-2.947 2.713,-3.326 2.768,-3.368 L 3.032,-3.569 V -4.837 H 2.385 v -0.306 c 1.276,-0.184 4.212,-0.852 6.633,-3.219 2.332,-2.282 3.154,-4.514 3.427,-5.541 h 3.541 v -3.411 h 37.105 v -0.671 H 15.314 v 3.41 h -3.41 c 0,0 -0.376,2.815 -3.356,5.734 -2.977,2.911 -6.834,3.096 -6.834,3.096 v 1.578 h 0.647 v 0.265 c 0,0 -0.462,0.352 -1.303,0.669 -0.847,0.313 -1.728,0.448 -1.728,0.448 v 2.243 h -0.545 v -2.243 c 0,0 -0.896,-0.135 -1.729,-0.448 C -3.788,-3.55 -4.24,-3.902 -4.24,-3.902 v -0.265 h 0.634 v -1.578 c 0,0 -4.087,-0.551 -6.835,-3.096 -2.757,-2.554 -3.353,-5.734 -3.353,-5.734 h -3.418 v -3.41 h -22.214 v 0.671 h 21.543 v 3.411 h 3.565 c 0.303,1.068 1.196,3.494 3.42,5.554 2.273,2.104 5.349,2.911 6.621,3.167 v 0.345 h -0.635 v 1.263 l 0.26,0.202 c 0.054,0.042 0.558,0.425 1.472,0.766 0.462,0.175 0.939,0.298 1.293,0.375 V 0 Z"
       style="fill:#527158;fill-opacity:1;fill-rule:nonzero;stroke:none"
       transform="matrix(1.3333333,0,0,-1.3333333,695.61187,679.67987)"
       clip-path="url(#clipPath718)" />
    <path
       id="path719"
       d="M 482.283,49.524 H 574.8 v 1.573 h -92.517 z"
       style="fill:#527158;fill-opacity:1;fill-rule:nonzero;stroke:none"
       transform="matrix(1.3333333,0,0,-1.3333333,0,793.70133)"
       clip-path="url(#clipPath720)" />
  </g>
</svg>
